<?xml version="1.0" encoding="utf-8"?>
<!-- Generator: Adobe Illustrator 26.0.3, SVG Export Plug-In . SVG Version: 6.00 Build 0)  -->
<svg version="1.1" id="레이어_1" xmlns="http://www.w3.org/2000/svg" xmlns:xlink="http://www.w3.org/1999/xlink" x="0px"
	 y="0px" viewBox="0 0 140 30" style="enable-background:new 0 0 140 30;" xml:space="preserve">
<g>
	<path d="M25.62,26.97H21.3v-2.08c-0.53,0.7-1.21,1.28-2.03,1.73c-0.83,0.45-1.8,0.68-2.92,0.68c-0.92,0-1.78-0.2-2.56-0.61
		c-0.78-0.41-1.45-0.97-2.01-1.7s-1-1.59-1.32-2.59s-0.48-2.1-0.48-3.29c0-1.39,0.22-2.61,0.66-3.68c0.44-1.07,1.04-1.96,1.78-2.67
		c0.75-0.71,1.62-1.26,2.63-1.63c1-0.37,2.07-0.56,3.22-0.56c0.57,0,1.1,0.04,1.57,0.12c0.47,0.08,0.9,0.18,1.27,0.31V3.66h4.52
		V26.97z M17.9,23.8c0.7,0,1.31-0.14,1.83-0.41c0.52-0.27,0.97-0.63,1.37-1.07v-7.99c-0.62-0.22-1.34-0.33-2.18-0.33
		c-1.45,0-2.55,0.45-3.3,1.34c-0.75,0.89-1.12,2.13-1.12,3.72c0,0.68,0.07,1.32,0.2,1.9c0.13,0.58,0.33,1.08,0.61,1.5
		c0.28,0.42,0.63,0.75,1.06,0.99C16.79,23.68,17.3,23.8,17.9,23.8z"/>
	<path d="M36.78,10.56c1.06,0,2,0.17,2.82,0.5c0.83,0.33,1.51,0.8,2.06,1.4c0.55,0.61,0.97,1.33,1.25,2.18
		c0.29,0.85,0.43,1.8,0.43,2.86c0,0.44-0.03,0.89-0.08,1.34c-0.06,0.45-0.14,0.86-0.25,1.24h-9.54c0.04,1.18,0.41,2.12,1.09,2.82
		c0.68,0.7,1.77,1.05,3.27,1.05c0.86,0,1.7-0.08,2.51-0.24c0.81-0.16,1.54-0.39,2.18-0.69l0.56,3.07c-0.79,0.4-1.7,0.7-2.71,0.91
		c-1.01,0.21-2.06,0.31-3.14,0.31c-1.34,0-2.53-0.2-3.57-0.59c-1.03-0.4-1.91-0.96-2.62-1.68s-1.26-1.6-1.63-2.62
		c-0.37-1.02-0.56-2.15-0.56-3.38c0-1.25,0.18-2.41,0.54-3.45c0.36-1.04,0.89-1.94,1.57-2.67c0.68-0.74,1.51-1.31,2.49-1.72
		C34.45,10.76,35.55,10.56,36.78,10.56z M36.52,13.59c-0.92,0-1.63,0.33-2.13,0.97c-0.5,0.65-0.79,1.47-0.88,2.46h5.51
		c0.11-1.03-0.04-1.87-0.46-2.49C38.15,13.91,37.47,13.59,36.52,13.59z"/>
	<path d="M50.36,26.97l-5.65-16.08h4.56l3.5,11.86l3.47-11.86h4.56l-5.65,16.08H50.36z"/>
	<path d="M67.43,22.31c0,0.51,0.1,0.89,0.31,1.14s0.57,0.38,1.07,0.38c0.2,0,0.41-0.01,0.63-0.03c0.22-0.02,0.43-0.05,0.63-0.1
		l0.17,3.17c-0.37,0.11-0.84,0.2-1.39,0.28c-0.55,0.08-1.09,0.12-1.62,0.12c-0.81,0-1.5-0.13-2.05-0.38c-0.55-0.25-1-0.59-1.34-1.02
		c-0.34-0.43-0.58-0.91-0.73-1.45c-0.14-0.54-0.21-1.09-0.21-1.67V3.66h4.52V22.31z"/>
	<path d="M72.58,6.2c0-0.73,0.24-1.34,0.73-1.85c0.48-0.51,1.11-0.76,1.88-0.76s1.4,0.25,1.9,0.76c0.5,0.51,0.74,1.12,0.74,1.85
		c0,0.71-0.25,1.32-0.74,1.83c-0.5,0.52-1.13,0.78-1.9,0.78s-1.4-0.26-1.88-0.78C72.82,7.51,72.58,6.9,72.58,6.2z M72.94,26.97
		V10.89h4.52v16.08H72.94z"/>
	<path d="M97.43,15.33c-0.64,0-1.2,0.18-1.67,0.54c-0.47,0.36-0.84,0.74-1.12,1.14c0.06,0.36,0.11,0.75,0.15,1.16
		c0.04,0.41,0.06,0.81,0.06,1.21v7.59h-4.11v-7.62c0-1.36-0.19-2.37-0.57-3.03c-0.38-0.66-1.02-0.99-1.92-0.99
		c-0.62,0-1.14,0.14-1.54,0.42c-0.41,0.28-0.76,0.61-1.04,0.99v10.23h-4.11V12.36h3.96v1.98c0.48-0.78,1.09-1.35,1.83-1.73
		c0.74-0.37,1.55-0.55,2.43-0.55c1.02,0,1.86,0.23,2.52,0.69s1.19,1.07,1.59,1.83c0.66-0.92,1.4-1.57,2.22-1.95s1.74-0.57,2.76-0.57
		c0.94,0,1.74,0.19,2.39,0.55c0.65,0.37,1.18,0.89,1.59,1.55c0.41,0.66,0.71,1.43,0.9,2.32c0.19,0.89,0.29,1.86,0.29,2.9v7.59h-4.11
		v-7.62c0-1.36-0.19-2.37-0.57-3.03C98.97,15.66,98.33,15.33,97.43,15.33z"/>
	<path d="M123.65,15.33c-0.64,0-1.2,0.18-1.67,0.54c-0.47,0.36-0.84,0.74-1.12,1.14c0.06,0.36,0.11,0.75,0.15,1.16
		c0.04,0.41,0.06,0.81,0.06,1.21v7.59h-4.11v-7.62c0-1.36-0.19-2.37-0.57-3.03c-0.38-0.66-1.02-0.99-1.92-0.99
		c-0.62,0-1.14,0.14-1.54,0.42c-0.41,0.28-0.76,0.61-1.04,0.99v10.23h-4.11V12.36h3.96v1.98c0.48-0.78,1.09-1.35,1.83-1.73
		c0.74-0.37,1.55-0.55,2.43-0.55c1.02,0,1.86,0.23,2.52,0.69s1.19,1.07,1.59,1.83c0.66-0.92,1.4-1.57,2.22-1.95s1.74-0.57,2.76-0.57
		c0.94,0,1.74,0.19,2.39,0.55c0.65,0.37,1.18,0.89,1.59,1.55c0.41,0.66,0.71,1.43,0.9,2.32c0.19,0.89,0.29,1.86,0.29,2.9v7.59h-4.11
		v-7.62c0-1.36-0.19-2.37-0.57-3.03C125.19,15.66,124.55,15.33,123.65,15.33z"/>
</g>
</svg>
